<?xml version="1.0" encoding="UTF-8"?>
<svg xmlns="http://www.w3.org/2000/svg" version="1.1" viewBox="0 0 72 72">
  <defs>
    <style>
      .cls-1 {
        fill: #389244;
      }
    </style>
  </defs>
  <!-- Generator: Adobe Illustrator 28.7.8, SVG Export Plug-In . SVG Version: 1.2.0 Build 200)  -->
  <g>
    <g id="Layer_1">
      <g>
        <path class="cls-1" d="M13.03,59.5c.06-.02.12-.03.18-.05,1.06-.51,2.13-1.01,3.18-1.52.28-.14.46-.15.6.18.1.23.25.44.38.66.96,1.62,1.92,3.24,2.88,4.87,1.01,1.72,2.03,3.44,3.04,5.17.12.2.16.19.3,0,1.03-1.42,2.07-2.83,3.11-4.23.25-.34.43-.64.34-1.12-.2-1.12-.3-2.25-.45-3.38-.16-1.24-.33-2.48-.49-3.72-.17-1.33-.34-2.66-.53-3.98-.08-.53-.02-.94.42-1.37,2.58-2.53,5.12-5.1,7.81-7.51.93-.83,1.86-1.69,2.87-2.41,1.42-1,2.87-1.97,4.48-2.67.4-.18.81-.43,1.24-.42.64.02,1.29.14,1.83.54.24.18.45.41.68.6.93.73,1.58,1.71,2.06,2.74.71,1.53,1.22,3.16,1.81,4.76,2.72,7.39,5.43,14.78,8.15,22.18.15.42.16.42.47.12.66-.63,1.32-1.28,2-1.89.54-.49.98-1.07,1.39-1.67.33-.48.67-1.01.73-1.58.11-.95.11-1.95-.12-2.88-.5-2.04-.93-4.09-1.27-6.16-.04-.25.02-.4.18-.57,1.21-1.22,2.39-2.47,3.61-3.68.48-.48.77-1.07,1.14-1.62.05-.08.06-.16.06-.25-.01-.74-.21-1.4-.77-1.92-.14-.13-.27-.27-.41-.4-.32-.32-1.35-.43-1.74-.22-.86.46-1.61,1.07-2.36,1.69-.25.21-.33.18-.38-.15-.33-2.24-.66-4.48-1.01-6.72-.05-.31.04-.49.25-.69,1.29-1.26,2.71-2.4,3.78-3.87.5-.69.88-1.4.49-2.28-.03-.06-.04-.12-.06-.18-.22-.81-.69-1.17-1.52-1.17-.15,0-.31-.01-.46,0-.73.06-1.43.14-1.93.8-.3.39-.77.62-1.16.92-.18.14-.25.03-.27-.13-.16-1.06-.31-2.12-.46-3.19-.21-1.46-.43-2.92-.65-4.39-.16-1.07-.33-2.15-.5-3.22-.02-.14,0-.27.11-.38.79-.83,1.57-1.66,2.36-2.49.5-.54,1.01-1.08,1.51-1.62.74-.8,1.47-1.61,2.21-2.41,2-2.19,4.12-4.28,5.62-6.87.46-.78.86-1.58.96-2.49.02-.18.13-.36.08-.55-.21-.74-.42-1.46-1.07-2-.68-.57-1.35-1.03-2.28-.81-.06.01-.13,0-.19,0-.97-.09-1.84.3-2.63.74-2.07,1.14-3.82,2.71-5.51,4.34-2.52,2.43-4.99,4.91-7.48,7.37-.15.15-.29.26-.53.23-.95-.14-1.9-.26-2.85-.4-1.56-.22-3.13-.45-4.69-.68-1.04-.15-2.08-.3-3.11-.44-.24-.03-.29-.1-.12-.3.23-.27.45-.55.63-.86.54-.96,1.42-1.86.63-3.1,0-.01,0-.03-.01-.04-.24-.51-.68-.91-1.13-1.08-.62-.22-1.37-.12-1.98.11-.6.22-1.14.64-1.58,1.17-.87,1.07-1.77,2.1-2.67,3.15-.11.13-.2.27-.43.23-2.2-.43-4.4-.85-6.6-1.27-.22-.04-.33-.13-.14-.34.35-.38.68-.79,1.05-1.15.44-.42.53-.98.64-1.52.07-.33-.28-.58-.43-.86-.08-.16-.2-.29-.29-.45-.21-.41-.54-.65-.97-.85-.64-.3-1.23-.13-1.78.13-.61.29-1.11.75-1.57,1.25-.74.81-1.52,1.57-2.28,2.37-.36.38-.87.49-1.32.48-.75-.01-1.5-.2-2.25-.29-1.93-.23-3.83-.69-5.81-.54-1.2.09-2.38.17-3.3,1.01-1.06.97-2.04,2.02-3.06,3.04-.12.12-.14.19.03.28.83.42,1.61.95,2.48,1.26,3.58,1.3,7.16,2.6,10.77,3.82,2.6.88,5.09,1.98,7.57,3.14,1.36.64,2.72,1.3,4.09,1.92,1.36.62,2.49,1.44,3.15,2.87.46,1,.42,2.02.29,3.02-.18,1.44-.95,2.63-1.89,3.72-1.26,1.45-2.5,2.91-3.75,4.37-.95,1.12-1.89,2.25-2.84,3.37-.96,1.13-1.93,2.25-2.88,3.39-.15.17-.3.24-.52.21-.49-.07-.98-.12-1.47-.18-.9-.11-1.8-.21-2.7-.32-1.15-.14-2.31-.3-3.46-.45-1.29-.16-2.58-.3-3.87-.48-.22-.03-.37.02-.52.12-1.55,1.09-3.11,2.17-4.65,3.26-.35.25-.35.26,0,.46.88.52,1.77,1.03,2.65,1.55,2.72,1.61,5.44,3.23,8.16,4.84.27.16.31.28.17.57-.53,1.12-1.03,2.26-1.53,3.39,0,.02,0,.04,0,.06.02,0,.03-.01.05-.02Z"/>
        <path class="cls-1" d="M12.98,59.45c.51-1.13,1.01-2.27,1.53-3.39.13-.28.1-.41-.17-.57-2.73-1.6-5.44-3.22-8.16-4.84-.88-.52-1.77-1.04-2.65-1.55-.35-.21-.36-.22,0-.46,1.55-1.09,3.1-2.18,4.65-3.26.15-.11.3-.16.52-.12,1.29.18,2.58.32,3.87.48,1.15.14,2.31.3,3.46.45.9.11,1.8.21,2.7.32.49.06.98.11,1.47.18.22.03.38-.04.52-.21.96-1.13,1.92-2.26,2.88-3.39.95-1.12,1.89-2.25,2.84-3.37,1.24-1.46,2.49-2.92,3.75-4.37.94-1.08,1.71-2.28,1.89-3.72.12-1,.17-2.02-.29-3.02-.66-1.43-1.79-2.24-3.15-2.87-1.37-.63-2.72-1.29-4.09-1.92-2.48-1.16-4.97-2.26-7.57-3.14-3.61-1.22-7.18-2.53-10.77-3.82-.87-.32-1.65-.85-2.48-1.26-.17-.09-.15-.16-.03-.28,1.02-1.01,2-2.07,3.06-3.04.92-.84,2.1-.92,3.3-1.01,1.98-.15,3.88.31,5.81.54.75.09,1.5.28,2.25.29.45,0,.96-.1,1.32-.48.75-.79,1.54-1.56,2.28-2.37.46-.5.97-.96,1.57-1.25.55-.27,1.14-.43,1.78-.13.43.2.75.44.97.85.08.16.21.29.29.45.15.29.5.53.43.86-.11.54-.2,1.1-.64,1.52-.37.36-.7.77-1.05,1.15-.19.21-.09.3.14.34,2.2.42,4.4.84,6.6,1.27.24.05.32-.1.43-.23.89-1.05,1.8-2.08,2.67-3.15.43-.53.98-.95,1.58-1.17.61-.23,1.36-.34,1.98-.11.46.17.9.57,1.13,1.08,0,.01,0,.03.01.04.79,1.23-.09,2.13-.63,3.1-.17.31-.4.58-.63.86-.17.21-.12.27.12.3,1.04.14,2.08.29,3.11.44,1.56.22,3.13.45,4.69.68.95.14,1.9.26,2.85.4.24.03.38-.08.53-.23,2.49-2.46,4.96-4.94,7.48-7.37,1.69-1.63,3.44-3.2,5.51-4.34.8-.44,1.66-.83,2.63-.74.06,0,.13.02.19,0,.94-.22,1.61.24,2.28.81.65.54.86,1.26,1.07,2,.05.19-.06.37-.08.55-.1.92-.5,1.71-.96,2.49-1.51,2.59-3.62,4.68-5.62,6.87-.74.8-1.47,1.61-2.21,2.41-.5.54-1,1.08-1.51,1.62-.78.83-1.57,1.66-2.36,2.49-.11.12-.13.25-.11.38.16,1.07.34,2.14.5,3.22.22,1.46.43,2.92.65,4.39.16,1.06.3,2.12.46,3.19.02.16.09.27.27.13.39-.31.86-.53,1.16-.92.5-.66,1.2-.74,1.93-.8.15-.01.31,0,.46,0,.83,0,1.3.36,1.52,1.17.02.06.03.12.06.18.39.88.01,1.6-.49,2.28-1.07,1.47-2.49,2.61-3.78,3.87-.21.2-.3.38-.25.69.36,2.24.69,4.48,1.01,6.72.05.33.13.35.38.15.75-.61,1.5-1.22,2.36-1.69.39-.21,1.42-.1,1.74.22.14.13.27.27.41.4.56.52.75,1.18.77,1.92,0,.09-.01.18-.06.25-.36.55-.66,1.14-1.14,1.62-1.21,1.22-2.4,2.46-3.61,3.68-.17.17-.23.32-.18.57.34,2.07.77,4.12,1.27,6.16.23.93.23,1.93.12,2.88-.07.56-.41,1.1-.73,1.58-.4.6-.85,1.18-1.39,1.67-.68.62-1.33,1.26-2,1.89-.31.29-.31.29-.47-.12-2.72-7.39-5.43-14.78-8.15-22.18-.59-1.59-1.1-3.22-1.81-4.76-.48-1.03-1.13-2.01-2.06-2.74-.24-.19-.44-.42-.68-.6-.54-.4-1.19-.52-1.83-.54-.43-.01-.84.25-1.24.42-1.6.7-3.06,1.66-4.48,2.67-1.02.72-1.94,1.57-2.87,2.41-2.7,2.41-5.24,4.97-7.81,7.51-.44.43-.49.84-.42,1.37.19,1.33.35,2.65.53,3.98.16,1.24.33,2.48.49,3.72.15,1.13.24,2.26.45,3.38.09.48-.09.78-.34,1.12-1.04,1.41-2.08,2.82-3.11,4.23-.14.19-.18.19-.3,0-1.01-1.73-2.02-3.45-3.04-5.17-.96-1.62-1.92-3.25-2.88-4.87-.13-.22-.28-.43-.38-.66-.14-.32-.32-.31-.6-.18-1.06.52-2.12,1.02-3.18,1.52-.06.03-.12.04-.18.05-.02-.01-.03-.03-.05-.04Z"/>
        <path class="cls-1" d="M13.03,59.5s-.03.01-.05.02c0-.02,0-.04,0-.06.02.01.03.03.05.04Z"/>
      </g>
    </g>
  </g>
</svg>