<?xml version="1.0" encoding="UTF-8"?>
<svg xmlns="http://www.w3.org/2000/svg" version="1.1" xmlns:xlink="http://www.w3.org/1999/xlink" viewBox="0 0 72 72">
  <defs>
    <style>
      .cls-1 {
        fill: none;
        filter: url(#outer-glow-1);
        stroke: #000;
        stroke-miterlimit: 10;
        stroke-width: 6px;
      }

      .cls-2 {
        fill: #4f0000;
      }
    </style>
    <filter id="outer-glow-1" x="2.7" y="4.76" width="69.12" height="62.4" filterUnits="userSpaceOnUse">
      <feOffset dx="0" dy="0"/>
      <feGaussianBlur result="blur" stdDeviation="1"/>
      <feFlood flood-color="#e91fff" flood-opacity="1"/>
      <feComposite in2="blur" operator="in"/>
      <feComposite in="SourceGraphic"/>
    </filter>
  </defs>
  <!-- Generator: Adobe Illustrator 28.7.8, SVG Export Plug-In . SVG Version: 1.2.0 Build 200)  -->
  <g>
    <g id="Layer_1">
      <circle class="cls-2" cx="32.5" cy="36" r="25.93"/>
      <path class="cls-1" d="M56.97,34.52c.68,3.32,3.23,5.3,5.42,5.02,1.36-.18,2.67-1.25,3.11-2.65.68-2.2-.92-4.88-3.13-5.24-.88-.14-1.46.2-3.26,1.12-4,2.06-6,3.08-7.96,3.29-.88.09-3.39.35-5.48-1.24-1.67-1.27-2.19-3.07-2.46-3.99-.36-1.23-1.22-4.22.61-6.5,1.8-2.24,4.82-2.08,5.12-2.06,2.66.18,2.58,3.11,5.77,4.29.38.14,2.9,1.02,5.42-.18.52-.25,2.84-1.36,3.19-3.71.26-1.7-.67-3.02-.88-3.31-.12-.18-1.66-2.3-3.31-1.98-1.24.24-1.87,1.73-2.77,3.87-.81,1.92-1.13,3.5-1.27,4.18-.69,3.45-.34,5.63-.43,8.48-.16,4.85.49,11.27-3.02,16.86-4.85,7.72-16.19,10.09-17,10.2-1.1.14-9.83,1.09-17.25-5.08-7.03-5.85-7.94-13.97-8.3-17.23-.32-2.92-.9-8.84,2.44-15.1,4.52-8.46,12.72-11.08,14.04-11.48,2.06-.62,7.4-2.18,13.51-.11"/>
    </g>
  </g>
</svg>