<?xml version="1.0" encoding="UTF-8"?>
<svg xmlns="http://www.w3.org/2000/svg" version="1.1" viewBox="0 0 72 72">
  <defs>
    <style>
      .cls-1 {
        fill: #389244;
        stroke: #389244;
        stroke-miterlimit: 2;
        stroke-width: .5px;
      }
    </style>
  </defs>
  <!-- Generator: Adobe Illustrator 28.7.8, SVG Export Plug-In . SVG Version: 1.2.0 Build 200)  -->
  <g>
    <g id="Layer_1">
      <g>
        <path class="cls-1" d="M69.67,13.89v7.73c-.44.26-.29.7-.29,1.07,0,8.6,0,17.2,0,25.8,0,.37-.15.81.29,1.07v8.03c-.4.12-.25.47-.3.73-.95,5.44-5,9.48-10.36,10.33-.15-.02-.29-.06-.44-.06-14.68,0-29.35,0-44.03,0-.36,0-.81-.18-1.06.29h-.3c-.07-.31-.35-.29-.57-.35-4.91-1.36-8.09-4.43-9.31-9.43-.07-.28-.14-.59-.52-.63v-3.27c.57-.79.53-1.59,0-2.38v-6.84c.39-.21.29-.6.29-.92,0-6.32,0-12.64,0-18.96,0-.33.1-.71-.29-.92v-11c.64-.53.24-1.28.39-1.92C4.57,6.39,9.25,2.43,15.3,2.37c8.81-.1,17.63-.06,26.44-.07,5.15,0,10.3-.06,15.45.06,6.2.15,10.61,3.89,12.08,9.92.13.54-.2,1.2.4,1.62ZM8.1,35.43c0,6.88.11,13.76-.04,20.64-.1,4.3,3.75,7.73,7.69,7.7,13.66-.12,27.33-.12,40.99,0,3.96.03,7.7-3.45,7.67-7.56-.11-13.76-.11-27.52,0-41.29.03-4.25-3.96-7.6-7.68-7.56-13.61.14-27.23.14-40.84,0-3.6-.04-7.93,3.05-7.82,7.73.15,6.78.04,13.56.04,20.35Z"/>
        <path class="cls-1" d="M59.01,68.65c.01.08,0,.16-.05.23H13.49c.25-.47.69-.29,1.06-.29,14.68,0,29.35,0,44.03,0,.15,0,.29.04.44.06Z"/>
        <path class="cls-1" d="M69.67,49.56c-.44-.26-.29-.7-.29-1.07,0-8.6,0-17.2,0-25.8,0-.37-.15-.81.29-1.07v27.94Z"/>
        <path class="cls-1" d="M2.79,25.19c.39.21.29.6.29.92,0,6.32,0,12.64,0,18.96,0,.33.1.71-.29.92v-20.81Z"/>
        <path class="cls-1" d="M2.79,52.83c.53.79.57,1.59,0,2.38v-2.38Z"/>
        <path class="cls-1" d="M31.08,47.09c0-1.73-.06-3.47.02-5.2.05-1.01-.32-1.24-1.26-1.23-3.46.04-6.93-.04-10.39,0-.98.01-1.24-.27-1.22-1.23.07-2.62.06-5.25,0-7.87-.02-.85.25-1.07,1.08-1.07,3.51.03,7.03-.04,10.54,0,.96,0,1.26-.26,1.25-1.25-.04-3.41.06-6.83.04-10.24,0-.98.19-1.4,1.28-1.36,2.52.08,5.05.07,7.57,0,1.01-.03,1.36.23,1.34,1.3-.05,3.41.07,6.83.02,10.24-.02,1.07.34,1.32,1.34,1.31,3.41-.04,6.83.03,10.25,0,.89,0,1.31.11,1.28,1.17-.09,2.62-.08,5.25,0,7.87.03.97-.31,1.13-1.18,1.12-3.46-.03-6.93.05-10.39,0-1.07-.02-1.3.35-1.29,1.35.04,3.46-.05,6.93-.03,10.39,0,.82-.2,1.12-1.07,1.11-2.67-.05-5.35-.05-8.02,0-.83.01-1.13-.21-1.1-1.08.06-1.78.02-3.56.02-5.34-.03,0-.06,0-.09,0Z"/>
      </g>
    </g>
  </g>
</svg>